<?xml version="1.0" encoding="UTF-8" standalone="no"?>
<!-- Created with Inkscape (http://www.inkscape.org/) -->

<svg
   xmlns:dc="http://purl.org/dc/elements/1.1/"
   xmlns:cc="http://creativecommons.org/ns#"
   xmlns:rdf="http://www.w3.org/1999/02/22-rdf-syntax-ns#"
   xmlns:svg="http://www.w3.org/2000/svg"
   xmlns="http://www.w3.org/2000/svg"
   xmlns:sodipodi="http://sodipodi.sourceforge.net/DTD/sodipodi-0.dtd"
   xmlns:inkscape="http://www.inkscape.org/namespaces/inkscape"
   width="271.1mm"
   height="114mm"
   viewBox="0 0 960.3 403.6"
   id="svg11281"
   version="1.1"
   inkscape:version="0.91pre4 r13712"
   inkscape:export-filename="D:\Mijn_documenten\Dropbox\A. PhD\C. Papers\ch_Wingsensors\Mohren_WingSparseSensors\figs\Figure03_wingFlap.png"
   inkscape:export-xdpi="200"
   inkscape:export-ydpi="200"
   sodipodi:docname="Figure01_wingFlap.svg">
  <defs
     id="defs11283">
    <marker
       inkscape:stockid="Arrow2Sstart"
       orient="auto"
       refY="0"
       refX="0"
       id="Arrow2Sstart"
       style="overflow:visible"
       inkscape:isstock="true">
      <path
         id="path4245"
         style="fill:#000000;fill-opacity:1;fill-rule:evenodd;stroke:#000000;stroke-width:0.625;stroke-linejoin:round;stroke-opacity:1"
         d="M 8.719,4.034 -2.207,0.016 8.719,-4.002 c -1.746,2.372 -1.736,5.618 0,8.036 z"
         transform="matrix(0.3,0,0,0.3,-0.69,0)"
         inkscape:connector-curvature="0" />
    </marker>
    <marker
       inkscape:stockid="Arrow1Mstart"
       orient="auto"
       refY="0"
       refX="0"
       id="Arrow1Mstart"
       style="overflow:visible"
       inkscape:isstock="true">
      <path
         id="path4221"
         d="M 0,0 5,-5 -12.5,0 5,5 0,0 Z"
         style="fill:#000000;fill-opacity:1;fill-rule:evenodd;stroke:#000000;stroke-width:1pt;stroke-opacity:1"
         transform="matrix(0.4,0,0,0.4,4,0)"
         inkscape:connector-curvature="0" />
    </marker>
    <marker
       inkscape:stockid="TriangleInS"
       orient="auto"
       refY="0"
       refX="0"
       id="TriangleInS"
       style="overflow:visible"
       inkscape:isstock="true">
      <path
         inkscape:connector-curvature="0"
         id="path11633"
         d="m 5.77,0 -8.65,5 0,-10 8.65,5 z"
         style="fill:#000000;fill-opacity:1;fill-rule:evenodd;stroke:#000000;stroke-width:1pt;stroke-opacity:1"
         transform="scale(-0.2,-0.2)" />
    </marker>
    <marker
       inkscape:stockid="TriangleOutS"
       orient="auto"
       refY="0"
       refX="0"
       id="TriangleOutS"
       style="overflow:visible"
       inkscape:isstock="true">
      <path
         inkscape:connector-curvature="0"
         id="path11373"
         d="m 5.77,0 -8.65,5 0,-10 8.65,5 z"
         style="fill:#000000;fill-opacity:1;fill-rule:evenodd;stroke:#000000;stroke-width:1pt;stroke-opacity:1"
         transform="scale(0.2,0.2)" />
    </marker>
    <mask
       maskUnits="userSpaceOnUse"
       x="0"
       y="0"
       width="1"
       height="1"
       id="mask4308">
      <g
         id="g4310">
        <g
           clip-path="url(#clipPath4304)"
           id="g4312">
          <path
             d="m 279,360.8 52,0 0,22 -52,0 0,-22 z"
             style="fill:#000000;fill-opacity:0.95;fill-rule:nonzero;stroke:none"
             id="path4314"
             inkscape:connector-curvature="0" />
        </g>
      </g>
    </mask>
    <clipPath
       clipPathUnits="userSpaceOnUse"
       id="clipPath4304">
      <path
         d="m 279,360.8 52,0 0,22 -52,0 0,-22 z"
         id="path4306"
         inkscape:connector-curvature="0" />
    </clipPath>
    <clipPath
       clipPathUnits="userSpaceOnUse"
       id="clipPath4320">
      <path
         d="m 279,360.8 52,0 0,22 -52,0 0,-22 z"
         id="path4322"
         inkscape:connector-curvature="0" />
    </clipPath>
    <clipPath
       clipPathUnits="userSpaceOnUse"
       id="clipPath4324">
      <path
         d="m 279,361 52,0 0,22 -52,0 0,-22 z"
         id="path4326"
         inkscape:connector-curvature="0" />
    </clipPath>
  </defs>
  <sodipodi:namedview
     id="base"
     pagecolor="#ffffff"
     bordercolor="#666666"
     borderopacity="1.0"
     inkscape:pageopacity="0.0"
     inkscape:pageshadow="2"
     inkscape:zoom="0.35"
     inkscape:cx="-239.4"
     inkscape:cy="5.438"
     inkscape:document-units="px"
     inkscape:current-layer="layer2"
     showgrid="false"
     inkscape:window-width="2560"
     inkscape:window-height="1017"
     inkscape:window-x="-8"
     inkscape:window-y="-8"
     inkscape:window-maximized="1"
     fit-margin-top="0"
     fit-margin-left="0"
     fit-margin-right="0"
     fit-margin-bottom="0" />
  <metadata
     id="metadata11286">
    <rdf:RDF>
      <cc:Work
         rdf:about="">
        <dc:format>image/svg+xml</dc:format>
        <dc:type
           rdf:resource="http://purl.org/dc/dcmitype/StillImage" />
        <dc:title />
      </cc:Work>
    </rdf:RDF>
  </metadata>
  <g
     inkscape:label="Layer 1"
     inkscape:groupmode="layer"
     id="layer1"
     transform="translate(430,-282.8)">
    <path
       d="m 338.7,534.8 c -61.5,-2.2 -86.5,-4.3 -156.3,-8.6 -5,0 -22.8,-2.2 -42.2,-4.4 l -34.1,-4.2 0,-2.3 c 0,-4 -13.59,-167 -13.59,-167 0,0 14.89,2.4 34.29,2.4 61.3,8.5 149.2,12.7 220.5,12.7 36.4,0 77.7,0 142.1,-2.1 l 26.4,0 c 3.5,0 13.6,169.2 13.6,169.2 0,0 -15,2.1 -31.4,2.1 -38.6,2.2 -119.3,2.2 -159.3,2.2 z"
       style="fill:#e5ffd5;fill-opacity:1;fill-rule:nonzero;stroke:#000000;stroke-width:1.8823;stroke-linecap:butt;stroke-linejoin:round;stroke-miterlimit:4;stroke-dasharray:none;stroke-opacity:1"
       id="path4294"
       inkscape:connector-curvature="0"
       sodipodi:nodetypes="ccccsccscsccc" />
    <path
       sodipodi:nodetypes="cccccc"
       d="M -314.3,609.7 97.69,437.4 M 514.6,498.2 91.18,435.4 m 7.44,1.1 -9.43,-151"
       style="fill:none;stroke:#040404;stroke-width:5.4254;stroke-linecap:round;stroke-linejoin:round;stroke-miterlimit:8.5;stroke-dasharray:none;stroke-opacity:1"
       id="path4298"
       inkscape:connector-curvature="0" />
    <circle
       style="opacity:1;fill:#ff0000;fill-opacity:1;stroke:#ff0000;stroke-width:2.3877;stroke-linecap:round;stroke-linejoin:round;stroke-miterlimit:10;stroke-dasharray:none;stroke-dashoffset:0;stroke-opacity:1"
       id="path4203"
       cx="99"
       cy="506.6"
       r="5.657"
       transform="matrix(0.999,-0.0457,0.0457,0.999,0,0)" />
    <circle
       style="opacity:1;fill:#ff0000;fill-opacity:1;stroke:#ff0000;stroke-width:2.3873;stroke-linecap:round;stroke-linejoin:round;stroke-miterlimit:10;stroke-dasharray:none;stroke-dashoffset:0;stroke-opacity:1"
       id="path4203-8"
       cx="99"
       cy="369.7"
       r="5.657"
       transform="matrix(0.999,-0.0457,0.0457,0.999,0,0)" />
    <circle
       style="opacity:1;fill:#ff0000;fill-opacity:1;stroke:#ff0000;stroke-width:2.3877;stroke-linecap:round;stroke-linejoin:round;stroke-miterlimit:10;stroke-dasharray:none;stroke-dashoffset:0;stroke-opacity:1"
       id="path4203-84"
       cx="174.6"
       cy="380.6"
       r="5.657"
       transform="matrix(0.999,-0.0457,0.0457,0.999,0,0)" />
    <circle
       style="opacity:1;fill:#ff0000;fill-opacity:1;stroke:#ff0000;stroke-width:2.3877;stroke-linecap:round;stroke-linejoin:round;stroke-miterlimit:10;stroke-dasharray:none;stroke-dashoffset:0;stroke-opacity:1"
       id="path4203-1"
       cx="250.2"
       cy="390"
       r="5.657"
       transform="matrix(0.999,-0.0457,0.0457,0.999,0,0)" />
    <circle
       style="opacity:1;fill:#ff0000;fill-opacity:1;stroke:#ff0000;stroke-width:2.3877;stroke-linecap:round;stroke-linejoin:round;stroke-miterlimit:10;stroke-dasharray:none;stroke-dashoffset:0;stroke-opacity:1"
       id="path4203-3"
       cx="326.2"
       cy="394.1"
       r="5.657"
       transform="matrix(0.999,-0.0457,0.0457,0.999,0,0)" />
    <circle
       style="opacity:1;fill:#ff0000;fill-opacity:1;stroke:#ff0000;stroke-width:2.3877;stroke-linecap:round;stroke-linejoin:round;stroke-miterlimit:10;stroke-dasharray:none;stroke-dashoffset:0;stroke-opacity:1"
       id="path4203-5"
       cx="402.3"
       cy="464.1"
       r="5.657"
       transform="matrix(0.999,-0.0457,0.0457,0.999,0,0)" />
    <circle
       style="opacity:1;fill:#ff0000;fill-opacity:1;stroke:#ff0000;stroke-width:2.3877;stroke-linecap:round;stroke-linejoin:round;stroke-miterlimit:10;stroke-dasharray:none;stroke-dashoffset:0;stroke-opacity:1"
       id="path4203-7"
       cx="326.2"
       cy="462.6"
       r="5.657"
       transform="matrix(0.999,-0.0457,0.0457,0.999,0,0)" />
    <circle
       style="opacity:1;fill:#ff0000;fill-opacity:1;stroke:#ff0000;stroke-width:2.3877;stroke-linecap:round;stroke-linejoin:round;stroke-miterlimit:10;stroke-dasharray:none;stroke-dashoffset:0;stroke-opacity:1"
       id="path4203-32"
       cx="250.2"
       cy="458.5"
       r="5.657"
       transform="matrix(0.999,-0.0457,0.0457,0.999,0,0)" />
    <circle
       style="opacity:1;fill:#ff0000;fill-opacity:1;stroke:#ff0000;stroke-width:2.3877;stroke-linecap:round;stroke-linejoin:round;stroke-miterlimit:10;stroke-dasharray:none;stroke-dashoffset:0;stroke-opacity:1"
       id="path4203-6"
       cx="174.6"
       cy="449"
       r="5.657"
       transform="matrix(0.999,-0.0457,0.0457,0.999,0,0)" />
    <circle
       style="opacity:1;fill:#ff0000;fill-opacity:1;stroke:#ff0000;stroke-width:2.3873;stroke-linecap:round;stroke-linejoin:round;stroke-miterlimit:10;stroke-dasharray:none;stroke-dashoffset:0;stroke-opacity:1"
       id="path4203-4"
       cx="99"
       cy="438.1"
       r="5.657"
       transform="matrix(0.999,-0.0457,0.0457,0.999,0,0)" />
    <circle
       style="opacity:1;fill:#ff0000;fill-opacity:1;stroke:#ff0000;stroke-width:2.3877;stroke-linecap:round;stroke-linejoin:round;stroke-miterlimit:10;stroke-dasharray:none;stroke-dashoffset:0;stroke-opacity:1"
       id="path4203-0"
       cx="478.2"
       cy="443.8"
       r="5.657"
       transform="matrix(0.999,-0.0457,0.0457,0.999,0,0)" />
    <circle
       style="opacity:1;fill:#ff0000;fill-opacity:1;stroke:#ff0000;stroke-width:2.3877;stroke-linecap:round;stroke-linejoin:round;stroke-miterlimit:10;stroke-dasharray:none;stroke-dashoffset:0;stroke-opacity:1"
       id="path4203-2"
       cx="402.3"
       cy="441.1"
       r="5.657"
       transform="matrix(0.999,-0.0457,0.0457,0.999,0,0)" />
    <circle
       style="opacity:1;fill:#ff0000;fill-opacity:1;stroke:#ff0000;stroke-width:2.3877;stroke-linecap:round;stroke-linejoin:round;stroke-miterlimit:10;stroke-dasharray:none;stroke-dashoffset:0;stroke-opacity:1"
       id="path4203-57"
       cx="326.2"
       cy="439.9"
       r="5.657"
       transform="matrix(0.999,-0.0457,0.0457,0.999,0,0)" />
    <circle
       style="opacity:1;fill:#ff0000;fill-opacity:1;stroke:#ff0000;stroke-width:2.3877;stroke-linecap:round;stroke-linejoin:round;stroke-miterlimit:10;stroke-dasharray:none;stroke-dashoffset:0;stroke-opacity:1"
       id="path4203-86"
       cx="250.2"
       cy="435.7"
       r="5.657"
       transform="matrix(0.999,-0.0457,0.0457,0.999,0,0)" />
    <circle
       style="opacity:1;fill:#ff0000;fill-opacity:1;stroke:#ff0000;stroke-width:2.3873;stroke-linecap:round;stroke-linejoin:round;stroke-miterlimit:10;stroke-dasharray:none;stroke-dashoffset:0;stroke-opacity:1"
       id="path4203-67"
       cx="99"
       cy="415.2"
       r="5.657"
       transform="matrix(0.999,-0.0457,0.0457,0.999,0,0)" />
    <circle
       style="opacity:1;fill:#ff0000;fill-opacity:1;stroke:#ff0000;stroke-width:2.3877;stroke-linecap:round;stroke-linejoin:round;stroke-miterlimit:10;stroke-dasharray:none;stroke-dashoffset:0;stroke-opacity:1"
       id="path4203-65"
       cx="478.2"
       cy="420.9"
       r="5.657"
       transform="matrix(0.999,-0.0457,0.0457,0.999,0,0)" />
    <circle
       style="opacity:1;fill:#ff0000;fill-opacity:1;stroke:#ff0000;stroke-width:2.3877;stroke-linecap:round;stroke-linejoin:round;stroke-miterlimit:10;stroke-dasharray:none;stroke-dashoffset:0;stroke-opacity:1"
       id="path4203-53"
       cx="402.3"
       cy="418.3"
       r="5.657"
       transform="matrix(0.999,-0.0457,0.0457,0.999,0,0)" />
    <circle
       style="opacity:1;fill:#ff0000;fill-opacity:1;stroke:#ff0000;stroke-width:2.3877;stroke-linecap:round;stroke-linejoin:round;stroke-miterlimit:10;stroke-dasharray:none;stroke-dashoffset:0;stroke-opacity:1"
       id="path4203-43"
       cx="326.2"
       cy="417"
       r="5.657"
       transform="matrix(0.999,-0.0457,0.0457,0.999,0,0)" />
    <circle
       style="opacity:1;fill:#ff0000;fill-opacity:1;stroke:#ff0000;stroke-width:2.3877;stroke-linecap:round;stroke-linejoin:round;stroke-miterlimit:10;stroke-dasharray:none;stroke-dashoffset:0;stroke-opacity:1"
       id="path4203-40"
       cx="250.2"
       cy="412.8"
       r="5.657"
       transform="matrix(0.999,-0.0457,0.0457,0.999,0,0)" />
    <circle
       style="opacity:1;fill:#ff0000;fill-opacity:1;stroke:#ff0000;stroke-width:2.3877;stroke-linecap:round;stroke-linejoin:round;stroke-miterlimit:10;stroke-dasharray:none;stroke-dashoffset:0;stroke-opacity:1"
       id="path4203-18"
       cx="174.6"
       cy="403.3"
       r="5.657"
       transform="matrix(0.999,-0.0457,0.0457,0.999,0,0)" />
    <circle
       style="opacity:1;fill:#ff0000;fill-opacity:1;stroke:#ff0000;stroke-width:2.3877;stroke-linecap:round;stroke-linejoin:round;stroke-miterlimit:10;stroke-dasharray:none;stroke-dashoffset:0;stroke-opacity:1"
       id="path4203-51"
       cx="478.2"
       cy="398.2"
       r="5.657"
       transform="matrix(0.999,-0.0457,0.0457,0.999,0,0)" />
    <circle
       style="opacity:1;fill:#ff0000;fill-opacity:1;stroke:#ff0000;stroke-width:2.3877;stroke-linecap:round;stroke-linejoin:round;stroke-miterlimit:10;stroke-dasharray:none;stroke-dashoffset:0;stroke-opacity:1"
       id="path4203-50"
       cx="402.3"
       cy="395.4"
       r="5.657"
       transform="matrix(0.999,-0.0457,0.0457,0.999,0,0)" />
    <circle
       style="opacity:1;fill:#ff0000;fill-opacity:1;stroke:#ff0000;stroke-width:2.3877;stroke-linecap:round;stroke-linejoin:round;stroke-miterlimit:10;stroke-dasharray:none;stroke-dashoffset:0;stroke-opacity:1"
       id="path4203-79"
       cx="402.3"
       cy="486.8"
       r="5.657"
       transform="matrix(0.999,-0.0457,0.0457,0.999,0,0)" />
    <circle
       style="opacity:1;fill:#ff0000;fill-opacity:1;stroke:#ff0000;stroke-width:2.3877;stroke-linecap:round;stroke-linejoin:round;stroke-miterlimit:10;stroke-dasharray:none;stroke-dashoffset:0;stroke-opacity:1"
       id="path4203-85"
       cx="326.2"
       cy="485.5"
       r="5.657"
       transform="matrix(0.999,-0.0457,0.0457,0.999,0,0)" />
    <circle
       style="opacity:1;fill:#ff0000;fill-opacity:1;stroke:#ff0000;stroke-width:2.3877;stroke-linecap:round;stroke-linejoin:round;stroke-miterlimit:10;stroke-dasharray:none;stroke-dashoffset:0;stroke-opacity:1"
       id="path4203-27"
       cx="250.2"
       cy="481.2"
       r="5.657"
       transform="matrix(0.999,-0.0457,0.0457,0.999,0,0)" />
    <circle
       style="opacity:1;fill:#ff0000;fill-opacity:1;stroke:#ff0000;stroke-width:2.3877;stroke-linecap:round;stroke-linejoin:round;stroke-miterlimit:10;stroke-dasharray:none;stroke-dashoffset:0;stroke-opacity:1"
       id="path4203-9"
       cx="174.6"
       cy="471.8"
       r="5.657"
       transform="matrix(0.999,-0.0457,0.0457,0.999,0,0)" />
    <circle
       style="opacity:1;fill:#ff0000;fill-opacity:1;stroke:#ff0000;stroke-width:2.3873;stroke-linecap:round;stroke-linejoin:round;stroke-miterlimit:10;stroke-dasharray:none;stroke-dashoffset:0;stroke-opacity:1"
       id="path4203-28"
       cx="99"
       cy="460.9"
       r="5.657"
       transform="matrix(0.999,-0.0457,0.0457,0.999,0,0)" />
    <circle
       style="opacity:1;fill:#ff0000;fill-opacity:1;stroke:#ff0000;stroke-width:2.3877;stroke-linecap:round;stroke-linejoin:round;stroke-miterlimit:10;stroke-dasharray:none;stroke-dashoffset:0;stroke-opacity:1"
       id="path4203-75"
       cx="478.2"
       cy="466.6"
       r="5.657"
       transform="matrix(0.999,-0.0457,0.0457,0.999,0,0)" />
    <circle
       style="opacity:1;fill:#ff0000;fill-opacity:1;stroke:#ff0000;stroke-width:2.3877;stroke-linecap:round;stroke-linejoin:round;stroke-miterlimit:10;stroke-dasharray:none;stroke-dashoffset:0;stroke-opacity:1"
       id="path4203-99"
       cx="478.2"
       cy="489.5"
       r="5.657"
       transform="matrix(0.999,-0.0457,0.0457,0.999,0,0)" />
    <circle
       style="opacity:1;fill:#ff0000;fill-opacity:1;stroke:#ff0000;stroke-width:2.3873;stroke-linecap:round;stroke-linejoin:round;stroke-miterlimit:10;stroke-dasharray:none;stroke-dashoffset:0;stroke-opacity:1"
       id="path4203-01"
       cx="99"
       cy="483.9"
       r="5.657"
       transform="matrix(0.999,-0.0457,0.0457,0.999,0,0)" />
    <circle
       style="opacity:1;fill:#ff0000;fill-opacity:1;stroke:#ff0000;stroke-width:2.3877;stroke-linecap:round;stroke-linejoin:round;stroke-miterlimit:10;stroke-dasharray:none;stroke-dashoffset:0;stroke-opacity:1"
       id="path4203-60"
       cx="250.2"
       cy="504.1"
       r="5.657"
       transform="matrix(0.999,-0.0457,0.0457,0.999,0,0)" />
    <circle
       style="opacity:1;fill:#ff0000;fill-opacity:1;stroke:#ff0000;stroke-width:2.3877;stroke-linecap:round;stroke-linejoin:round;stroke-miterlimit:10;stroke-dasharray:none;stroke-dashoffset:0;stroke-opacity:1"
       id="path4203-48"
       cx="174.6"
       cy="494.5"
       r="5.657"
       transform="matrix(0.999,-0.0457,0.0457,0.999,0,0)" />
    <circle
       style="opacity:1;fill:#ff0000;fill-opacity:1;stroke:#ff0000;stroke-width:2.3877;stroke-linecap:round;stroke-linejoin:round;stroke-miterlimit:10;stroke-dasharray:none;stroke-dashoffset:0;stroke-opacity:1"
       id="path4203-90"
       cx="326.2"
       cy="508.3"
       r="5.657"
       transform="matrix(0.999,-0.0457,0.0457,0.999,0,0)" />
    <circle
       style="opacity:1;fill:#ff0000;fill-opacity:1;stroke:#ff0000;stroke-width:2.3877;stroke-linecap:round;stroke-linejoin:round;stroke-miterlimit:10;stroke-dasharray:none;stroke-dashoffset:0;stroke-opacity:1"
       id="path4203-657"
       cx="402.3"
       cy="509.6"
       r="5.657"
       transform="matrix(0.999,-0.0457,0.0457,0.999,0,0)" />
    <circle
       style="opacity:1;fill:#ff0000;fill-opacity:1;stroke:#ff0000;stroke-width:2.3877;stroke-linecap:round;stroke-linejoin:round;stroke-miterlimit:10;stroke-dasharray:none;stroke-dashoffset:0;stroke-opacity:1"
       id="path4203-39"
       cx="478.2"
       cy="512.4"
       r="5.657"
       transform="matrix(0.999,-0.0457,0.0457,0.999,0,0)" />
    <circle
       style="opacity:1;fill:#ff0000;fill-opacity:1;stroke:#ff0000;stroke-width:2.3877;stroke-linecap:round;stroke-linejoin:round;stroke-miterlimit:10;stroke-dasharray:none;stroke-dashoffset:0;stroke-opacity:1"
       id="path4203-98"
       cx="326.2"
       cy="531.2"
       r="5.657"
       transform="matrix(0.999,-0.0457,0.0457,0.999,0,0)" />
    <circle
       style="opacity:1;fill:#ff0000;fill-opacity:1;stroke:#ff0000;stroke-width:2.3877;stroke-linecap:round;stroke-linejoin:round;stroke-miterlimit:10;stroke-dasharray:none;stroke-dashoffset:0;stroke-opacity:1"
       id="path4203-78"
       cx="250.2"
       cy="527"
       r="5.657"
       transform="matrix(0.999,-0.0457,0.0457,0.999,0,0)" />
    <circle
       style="opacity:1;fill:#ff0000;fill-opacity:1;stroke:#ff0000;stroke-width:2.3877;stroke-linecap:round;stroke-linejoin:round;stroke-miterlimit:10;stroke-dasharray:none;stroke-dashoffset:0;stroke-opacity:1"
       id="path4203-83"
       cx="174.6"
       cy="517.5"
       r="5.657"
       transform="matrix(0.999,-0.0457,0.0457,0.999,0,0)" />
    <circle
       style="opacity:1;fill:#ff0000;fill-opacity:1;stroke:#ff0000;stroke-width:2.3877;stroke-linecap:round;stroke-linejoin:round;stroke-miterlimit:10;stroke-dasharray:none;stroke-dashoffset:0;stroke-opacity:1"
       id="path4203-780"
       cx="402.3"
       cy="532.5"
       r="5.657"
       transform="matrix(0.999,-0.0457,0.0457,0.999,0,0)" />
    <circle
       style="opacity:1;fill:#ff0000;fill-opacity:1;stroke:#ff0000;stroke-width:2.3877;stroke-linecap:round;stroke-linejoin:round;stroke-miterlimit:10;stroke-dasharray:none;stroke-dashoffset:0;stroke-opacity:1"
       id="path4203-15"
       cx="478.2"
       cy="535.1"
       r="5.657"
       transform="matrix(0.999,-0.0457,0.0457,0.999,0,0)" />
    <circle
       style="opacity:1;fill:#ff0000;fill-opacity:1;stroke:#ff0000;stroke-width:2.3871;stroke-linecap:round;stroke-linejoin:round;stroke-miterlimit:10;stroke-dasharray:none;stroke-dashoffset:0;stroke-opacity:1"
       id="path4203-51-2"
       cx="99"
       cy="392.4"
       r="5.657"
       transform="matrix(0.999,-0.0457,0.0457,0.999,0,0)" />
    <circle
       style="opacity:1;fill:#ff0000;fill-opacity:1;stroke:#ff0000;stroke-width:2.3873;stroke-linecap:round;stroke-linejoin:round;stroke-miterlimit:10;stroke-dasharray:none;stroke-dashoffset:0;stroke-opacity:1"
       id="path4203-51-29"
       cx="174.6"
       cy="426.1"
       r="5.657"
       transform="matrix(0.999,-0.0457,0.0457,0.999,0,0)" />
  </g>
  <g
     inkscape:groupmode="layer"
     id="layer3"
     inkscape:label="om_y"
     style="display:none"
     transform="translate(430,-282.8)">
    <path
       inkscape:connector-curvature="0"
       id="path4352"
       style="fill:#000000;fill-opacity:1;fill-rule:evenodd;stroke:none"
       d="m 598.2,543.4 -1.5,0 c -0.4,1.6 -0.7,3.1 -1.1,4.3 -0.4,1 -0.8,1.3 -4.5,1.3 l -5.3,0 c 0.8,-3.2 2.6,-6 6,-9.6 3,-4.1 5.7,-8.2 5.7,-12.9 0,-8.2 -9.1,-14.6 -20.3,-14.6 -11.3,0 -19.9,6.8 -19.9,14.6 0,4.7 2.6,8.8 5.6,12.9 3,3.6 5.3,6.4 6,9.6 l -5.2,0 c -3.8,0 -4.1,-0.3 -4.5,-1.3 -0.4,-1.2 -0.8,-2.7 -1.1,-4.3 l -1.9,0 2.2,9.5 10.5,0 c 1.5,0 1.9,0 1.9,-1.5 0,-3.7 -2.2,-9 -3.7,-12.9 -1.2,-3.2 -3,-7.7 -3,-12 0,-9.3 7.1,-13.1 13.1,-13.1 6.4,0 13.5,4.1 13.5,13.1 0,4.3 -1.9,8.8 -3.8,13.7 -1.1,2.2 -3,7.5 -3,11.2 0,1.5 0,1.5 1.5,1.5 l 10.6,0 2.2,-9.5 z"
       inkscape:export-xdpi="86.75"
       inkscape:export-ydpi="86.75" />
    <path
       inkscape:connector-curvature="0"
       id="path4354"
       style="fill:#000000;fill-opacity:1;fill-rule:evenodd;stroke:none"
       d="m 627.1,546.2 0,0 0,0 0,-0.8 c 0,-0.7 -0.7,-1.6 -1.5,-1.6 -0.4,0 -1.5,0.4 -1.9,1.2 0,0.4 -0.3,1.5 -0.7,2.3 l -0.8,3.4 -1.9,6.7 c -0.3,0 -2.2,3.4 -5.6,3.4 -3.4,0 -3.4,-2.6 -3.4,-3.4 0,-2.2 1.2,-4.9 2.7,-8 0.3,-1.1 0.7,-1.7 0.7,-2.5 0,-1.9 -1.9,-3.5 -4.5,-3.5 -4.9,0 -6.7,5.6 -6.7,6.5 0,0.4 0.7,0.4 0.7,0.4 0.8,0 0.8,0 0.8,-0.9 1.5,-2.9 3.3,-4.7 5.2,-4.7 0.8,0 1.1,0.3 1.1,1.5 0,1.1 -0.3,1.7 -0.7,2.1 -2.3,4.9 -2.6,6.5 -2.6,8.4 0,0.7 0,2.5 1.8,4.1 1.2,0.7 3.4,1.1 4.5,1.1 1.9,0 3.4,-0.7 4.9,-1.9 -0.4,2.3 -1.1,3.7 -2.6,6 -1.5,1.2 -3.4,2.7 -5.6,2.7 -0.4,0 -2.7,0 -3.8,-1.5 2.6,0 2.6,-2.3 2.6,-2.3 0,-1.2 -1.5,-1.5 -1.8,-1.5 -1.2,0 -2.7,0.6 -2.7,2.6 0,2.3 2.3,3.7 5.7,3.7 4.5,0 10.1,-3.3 11.6,-8.2 l 4.5,-15.3 z"
       inkscape:export-xdpi="86.75"
       inkscape:export-ydpi="86.75" />
    <g
       transform="matrix(-1.409,-3.752,3.274,-2.314,-947,-708.2)"
       id="g4368"
       inkscape:export-xdpi="86.75"
       inkscape:export-ydpi="86.75">
      <path
         inkscape:connector-curvature="0"
         id="path4370"
         style="fill:none;stroke:#000000;stroke-width:3.3012;stroke-linecap:butt;stroke-linejoin:round;stroke-miterlimit:4;stroke-dasharray:none;stroke-opacity:1"
         d="m -489.3,227.2 c 6.8,-2.4 14.6,-0.9 19.7,3.9 5.2,4.8 6.7,11.9 3.9,18.1" />
    </g>
    <g
       transform="matrix(2.645,3.039,-2.871,3.752,-947,-708.2)"
       id="g4372"
       inkscape:export-xdpi="86.75"
       inkscape:export-ydpi="86.75">
      <path
         inkscape:connector-curvature="0"
         id="path4374"
         style="fill:#000000;fill-opacity:1;fill-rule:evenodd;stroke:#000000;stroke-width:0.7535;stroke-linecap:butt;stroke-linejoin:miter;stroke-miterlimit:4;stroke-dasharray:none;stroke-opacity:1"
         d="m 493.7,-47.83 -5.2,3.01 0,-6.03 5.2,3.02 z" />
    </g>
  </g>
  <g
     inkscape:groupmode="layer"
     id="layer2"
     inkscape:label="om_x"
     style="display:inline"
     transform="translate(430,-282.8)">
    <path
       inkscape:connector-curvature="0"
       id="path4348"
       style="fill:#000000;fill-opacity:1;fill-rule:evenodd;stroke:none"
       d="m -365.7,642.4 -2.3,0 c -0.5,2.3 -1,4.8 -2,7.7 0,1.6 -0.5,2.5 -6.5,2.5 l -8.6,0 c 1.6,-6 4.9,-10.7 9.6,-17.8 4.5,-7.4 8.8,-15 8.8,-22.9 0,-14.5 -13.9,-26.5 -30.8,-26.5 -18,0 -31.4,12 -31.4,26.5 0,7.9 4.6,15.5 8.9,22.9 4.5,7.1 8.2,11.8 9.1,17.8 l -8.1,0 c -5.3,0 -5.8,-0.9 -6.3,-2.5 -1.1,-2.3 -1.6,-5.4 -2.2,-7.7 l -2.5,0 3.6,16.7 16.1,0 c 2.2,0 2.8,0 2.8,-2.4 0,-7 -3.4,-15.9 -5.5,-22.9 -2.5,-5.9 -5.3,-14 -5.3,-21.9 0,-17 11.3,-23.9 20.8,-23.9 9.3,0 20.5,7.4 20.5,23.9 0,7.9 -3.2,16 -6,23.9 -1.4,4.3 -4.6,13.9 -4.6,20.9 0,2.4 0,2.4 2.5,2.4 l 16.1,0 3.3,-16.7 z"
       inkscape:export-xdpi="86.75"
       inkscape:export-ydpi="86.75" />
    <path
       inkscape:connector-curvature="0"
       id="path4350"
       style="fill:#000000;fill-opacity:1;fill-rule:evenodd;stroke:none"
       d="m -343.2,667.1 0,0 0,0.5 0,0 -0.5,0.7 0,0 0,0.4 0,0 -0.6,0.5 0,0 0,0.6 0,0 -0.4,0.5 0,0.4 -0.6,0.4 0,0 -0.5,0.5 -0.5,0.4 0,0 -0.3,0 0,0.5 -0.5,0 0,0 -0.6,0.6 0,0 -0.4,0 -0.5,0 0,0.5 -1.1,0 c -0.4,0 -2.6,0 -4.1,-1.1 3.2,-0.9 3.2,-3.8 3.2,-3.8 0,-2.1 -1.2,-3.1 -2.6,-3.1 -1.9,0 -4.6,1.5 -4.6,4.7 0,3.3 4,5.4 8.1,5.4 3.1,0 6,-2.1 8,-5.4 1.6,3.7 5.6,5.4 8,5.4 8.3,0 12.5,-9.7 12.5,-11.7 0,-0.8 -0.6,-0.8 -1,-0.8 -1,0 -1,0.6 -1.7,1.4 -0.9,5.2 -5.3,9 -9.3,9 -2.9,0 -4.6,-2 -4.6,-4.9 0,-2.1 2.1,-8.6 4.1,-16.6 1,-6 4.5,-7.4 7,-7.4 0,0 1.9,0 3.5,1 -2.2,0.4 -3,2.7 -3,4 0,1.5 1.4,2.4 3,2.4 1.4,0 4,-0.9 4,-4.3 0,-4.1 -4.7,-5.1 -7.5,-5.1 -3.4,0 -6.5,2 -8,5.1 -1.4,-3.1 -4.6,-5.1 -8.5,-5.1 -8,0 -12.4,9 -12.4,11 0,1 1,1 1,1 0.8,0 0.8,-0.6 1.4,-1 1.4,-5.9 6.1,-9 9.5,-9 2.5,0 4.4,1.4 4.4,4.6 0,1.9 -0.8,5.4 -1.3,7.8 l -2.6,10 z"
       inkscape:export-xdpi="86.75"
       inkscape:export-ydpi="86.75" />
    <g
       transform="matrix(4.982,0,0,4.982,-1431,-1165)"
       id="g4360"
       inkscape:export-xdpi="86.75"
       inkscape:export-ydpi="86.75">
      <path
         inkscape:connector-curvature="0"
         id="path4362"
         style="fill:none;stroke:#000000;stroke-width:4.7138;stroke-linecap:butt;stroke-linejoin:round;stroke-miterlimit:4;stroke-dasharray:none;stroke-opacity:1"
         d="m 213,336.5 c 9,-3.7 19.1,-1.3 25.8,6.1 6.7,7.5 8.7,18.6 5.1,28.2" />
    </g>
    <g
       transform="matrix(-4.982,2.093,-2.093,-4.982,-1431,-1165)"
       id="g4364"
       inkscape:export-xdpi="86.75"
       inkscape:export-ydpi="86.75">
      <path
         inkscape:connector-curvature="0"
         id="path4366"
         style="fill:#000000;fill-opacity:1;fill-rule:evenodd;stroke:#000000;stroke-width:1.0865;stroke-linecap:butt;stroke-linejoin:miter;stroke-miterlimit:4;stroke-dasharray:none;stroke-opacity:1"
         d="m -55.95,-362.1 -7.52,4.3 0,-8.7 7.52,4.4 z" />
    </g>
  </g>
  <g
     inkscape:groupmode="layer"
     id="layer5"
     inkscape:label="om_x_per"
     style="display:none"
     transform="translate(430,-282.8)">
    <path
       sodipodi:open="true"
       d="m -87.38,552.7 a 91.92,92.94 0 0 1 35.13,67.5 91.92,92.94 0 0 1 -26.65,71.3"
       sodipodi:end="0.7838"
       sodipodi:start="5.376"
       sodipodi:ry="92.94"
       sodipodi:rx="91.92"
       sodipodi:cy="625.9"
       sodipodi:cx="-144"
       sodipodi:type="arc"
       id="path4209"
       style="display:inline;opacity:1;fill:none;fill-opacity:1;stroke:#000000;stroke-width:17.9998;stroke-linecap:round;stroke-linejoin:round;stroke-miterlimit:4;stroke-dasharray:none;stroke-dashoffset:0;stroke-opacity:1;marker-start:url(#TriangleInS);marker-end:url(#TriangleOutS)"
       inkscape:export-xdpi="86.75"
       inkscape:export-ydpi="86.75" />
    <path
       inkscape:connector-curvature="0"
       id="path4348-2"
       style="display:inline;fill:#000000;fill-opacity:1;fill-rule:evenodd;stroke:none"
       d="m -142.8,653.2 -1.7,0 c -0.4,1.7 -0.8,3.6 -1.5,5.8 0,1.2 -0.4,1.9 -4.9,1.9 l -6.5,0 c 1.2,-4.5 3.7,-8.1 7.2,-13.4 3.4,-5.6 6.7,-11.3 6.7,-17.3 0,-10.9 -10.5,-19.9 -23.2,-19.9 -13.6,0 -23.7,9 -23.7,19.9 0,6 3.5,11.7 6.7,17.3 3.4,5.3 6.2,8.9 6.9,13.4 l -6.1,0 c -4,0 -4.4,-0.7 -4.8,-1.9 -0.8,-1.7 -1.2,-4.1 -1.6,-5.8 l -1.9,0 2.7,12.6 12.1,0 c 1.7,0 2.1,0 2.1,-1.8 0,-5.3 -2.5,-12 -4.1,-17.3 -1.9,-4.4 -4,-10.5 -4,-16.5 0,-12.8 8.5,-18 15.7,-18 7,0 15.4,5.6 15.4,18 0,6 -2.4,12.1 -4.5,18 -1.1,3.3 -3.5,10.5 -3.5,15.8 0,1.8 0,1.8 1.9,1.8 l 12.1,0 2.5,-12.6 z"
       inkscape:export-xdpi="86.75"
       inkscape:export-ydpi="86.75" />
    <path
       inkscape:connector-curvature="0"
       id="path4350-5"
       style="display:inline;fill:#000000;fill-opacity:1;fill-rule:evenodd;stroke:none"
       d="m -125.8,671.8 0,0 0,0.4 0,0 -0.4,0.5 0,0 0,0.3 0,0 -0.5,0.4 0,0 0,0.4 0,0 -0.3,0.4 0,0.3 -0.4,0.3 0,0 -0.4,0.4 -0.4,0.3 0,0 -0.2,0 0,0.4 -0.4,0 0,0 -0.4,0.4 0,0 -0.3,0 -0.4,0 0,0.4 -0.8,0 c -0.3,0 -2,0 -3.1,-0.8 2.4,-0.7 2.4,-2.9 2.4,-2.9 0,-1.6 -0.9,-2.3 -2,-2.3 -1.4,0 -3.4,1.1 -3.4,3.5 0,2.5 3,4.1 6.1,4.1 2.3,0 4.5,-1.6 6,-4.1 1.2,2.8 4.2,4.1 6,4.1 6.3,0 9.4,-7.3 9.4,-8.8 0,-0.6 -0.4,-0.6 -0.7,-0.6 -0.8,0 -0.8,0.4 -1.3,1 -0.7,3.9 -4,6.8 -7,6.8 -2.2,0 -3.5,-1.5 -3.5,-3.7 0,-1.6 1.6,-6.5 3.1,-12.5 0.8,-4.5 3.4,-5.6 5.3,-5.6 0,0 1.4,0 2.6,0.8 -1.6,0.3 -2.2,2 -2.2,3 0,1.1 1,1.8 2.2,1.8 1.1,0 3,-0.7 3,-3.2 0,-3.1 -3.5,-3.9 -5.6,-3.9 -2.6,0 -4.9,1.5 -6,3.9 -1.1,-2.4 -3.5,-3.9 -6.4,-3.9 -6.1,0 -9.4,6.8 -9.4,8.3 0,0.8 0.8,0.8 0.8,0.8 0.6,0 0.6,-0.5 1,-0.8 1.1,-4.4 4.6,-6.8 7.2,-6.8 1.9,0 3.3,1.1 3.3,3.5 0,1.4 -0.6,4.1 -1,5.9 l -1.9,7.5 z"
       inkscape:export-xdpi="86.75"
       inkscape:export-ydpi="86.75" />
  </g>
</svg>
