<?xml version="1.0" encoding="utf-8" standalone="no"?><!DOCTYPE svg PUBLIC "-//W3C//DTD SVG 1.1//EN" "http://www.w3.org/Graphics/SVG/1.1/DTD/svg11.dtd">
<svg preserveAspectRatio="xMinYMin meet" width="100%" height="100%" viewBox="0 0 468.750 375.000"  version="1.1" xmlns="http://www.w3.org/2000/svg" xmlns:xlink="http://www.w3.org/1999/xlink">
  <desc>Matlab Figure Converted by PLOT2SVG written by Juerg Schwizer</desc>
  <g id="topgroup">
  <rect x="0" y="0" width="468.750" height="375.000" fill="#ffffff" stroke="none" />
  <g id ="ID000000">
  <clipPath id="ID000001">
    <rect x="60.938" y="28.125" width="363.281" height="301.938"/>
  </clipPath>
      <polygon fill="#ffffff" fill-opacity="1.00" stroke="none" stroke-width="0.5pt" stroke-opacity="1.00" stroke-dasharray="none" points="60.938,330.063 424.219,330.063 424.219,28.125 60.938,28.125 "/>
      <polygon fill="#ffffff" fill-opacity="1.00" stroke="none" stroke-width="0.5pt" stroke-opacity="1.00" stroke-dasharray="none" points="60.938,28.125 424.219,28.125 424.219,28.125 60.938,28.125 "/>
      <polygon fill="#ffffff" fill-opacity="1.00" stroke="none" stroke-width="0.5pt" stroke-opacity="1.00" stroke-dasharray="none" points="60.938,330.063 60.938,330.063 60.938,28.125 60.938,28.125 "/>
      <polyline fill="none" stroke="#262626" stroke-width="0.5pt" stroke-dasharray="none" points="60.938,330.063 60.938,28.125 "/>
      <polyline fill="none" stroke="#262626" stroke-width="0.5pt" stroke-dasharray="none" points="159.122,330.063 159.122,28.125 "/>
      <polyline fill="none" stroke="#262626" stroke-width="0.5pt" stroke-dasharray="none" points="257.306,330.063 257.306,28.125 "/>
      <polyline fill="none" stroke="#262626" stroke-width="0.5pt" stroke-dasharray="none" points="355.490,330.063 355.490,28.125 "/>
      <polyline fill="none" stroke="#262626" stroke-width="0.5pt" stroke-dasharray="none" points="404.582,330.063 404.582,28.125 "/>
      <polyline fill="none" stroke="#262626" stroke-width="0.5pt" stroke-dasharray="none" points="60.938,330.063 424.219,330.063 "/>
      <polyline fill="none" stroke="#262626" stroke-width="0.5pt" stroke-dasharray="none" points="60.938,229.417 424.219,229.417 "/>
      <polyline fill="none" stroke="#262626" stroke-width="0.5pt" stroke-dasharray="none" points="60.938,128.771 424.219,128.771 "/>
      <polyline fill="none" stroke="#262626" stroke-width="0.5pt" stroke-dasharray="none" points="60.938,28.125 424.219,28.125 "/>
      <polyline fill="none" stroke="#262626" stroke-width="0.5pt" stroke-dasharray="none" points="60.938,28.125 60.938,28.125 "/>
      <polyline fill="none" stroke="#262626" stroke-width="0.5pt" stroke-dasharray="none" points="159.122,28.125 159.122,28.125 "/>
      <polyline fill="none" stroke="#262626" stroke-width="0.5pt" stroke-dasharray="none" points="257.306,28.125 257.306,28.125 "/>
      <polyline fill="none" stroke="#262626" stroke-width="0.5pt" stroke-dasharray="none" points="355.490,28.125 355.490,28.125 "/>
      <polyline fill="none" stroke="#262626" stroke-width="0.5pt" stroke-dasharray="none" points="404.582,28.125 404.582,28.125 "/>
      <polyline fill="none" stroke="#262626" stroke-width="0.5pt" stroke-dasharray="none" points="60.938,330.063 60.938,330.063 "/>
      <polyline fill="none" stroke="#262626" stroke-width="0.5pt" stroke-dasharray="none" points="60.938,229.417 60.938,229.417 "/>
      <polyline fill="none" stroke="#262626" stroke-width="0.5pt" stroke-dasharray="none" points="60.938,128.771 60.938,128.771 "/>
      <polyline fill="none" stroke="#262626" stroke-width="0.5pt" stroke-dasharray="none" points="60.938,28.125 60.938,28.125 "/>
    <g>
<g id="ID000002" clip-path="url(#ID000001)" >
      <polyline fill="none" stroke="#7f7f7f" stroke-width="2.0pt" stroke-dasharray="none" points="70.756,280.299 80.574,277.783 90.393,268.557 100.211,266.879 110.030,251.503 119.848,266.879 129.666,226.062 139.485,256.815 149.303,243.675 159.122,253.180 168.940,250.664 178.758,243.675 188.577,201.180 198.395,209.288 208.214,117.588 218.032,173.223 227.851,112.276 237.669,107.803 247.487,116.470 257.306,103.330 267.124,79.846 276.943,104.448 286.761,96.620 296.579,72.577 306.398,98.857 316.216,82.641 326.035,78.168 335.853,88.792 345.671,80.964 355.490,89.351 "/>
<g>
</g>
</g>
<g id="ID000003" clip-path="url(#ID000001)" >
      <polygon fill="#ebebeb" fill-opacity="1.00" stroke="none" stroke-width="0.5pt" stroke-opacity="1.00" stroke-dasharray="none" points="70.756,281.267 80.574,283.175 90.393,278.386 100.211,278.017 110.030,253.924 119.848,271.017 129.666,253.676 139.485,264.874 149.303,255.296 159.122,263.532 168.940,281.071 178.758,262.069 188.577,275.997 198.395,306.763 208.214,142.893 218.032,207.671 227.851,132.585 237.669,149.207 247.487,155.919 257.306,142.904 267.124,83.235 276.943,112.708 286.761,126.911 296.579,77.015 306.398,136.574 316.216,93.925 326.035,84.683 335.853,104.801 345.671,83.183 355.490,109.964 355.490,68.739 345.671,78.745 335.853,72.783 326.035,71.654 316.216,71.358 306.398,61.139 296.579,68.139 286.761,66.329 276.943,96.188 267.124,76.456 257.306,63.756 247.487,77.020 237.669,66.399 227.851,91.967 218.032,138.774 208.214,92.282 198.395,111.812 188.577,126.363 178.758,225.280 168.940,220.258 159.122,242.829 149.303,232.053 139.485,248.755 129.666,198.448 119.848,262.742 110.030,249.082 100.211,255.742 90.393,258.728 80.574,272.390 70.756,279.330 "/>
</g>
<g id="ID000004" clip-path="url(#ID000001)" >
      <polyline fill="none" stroke="#7f7f7f" stroke-width="2.0pt" stroke-dasharray="none" points="70.756,280.299 80.574,277.783 90.393,268.557 100.211,266.879 110.030,251.503 119.848,266.879 129.666,226.062 139.485,256.815 149.303,243.675 159.122,253.180 168.940,250.664 178.758,243.675 188.577,201.180 198.395,209.288 208.214,117.588 218.032,173.223 227.851,112.276 237.669,107.803 247.487,116.470 257.306,103.330 267.124,79.846 276.943,104.448 286.761,96.620 296.579,72.577 306.398,98.857 316.216,82.641 326.035,78.168 335.853,88.792 345.671,80.964 355.490,89.351 "/>
<g>
</g>
</g>
<g id="ID000005" clip-path="url(#ID000001)" >
      <polyline fill="none" stroke="#ff0000" stroke-width="2.0pt" stroke-dasharray="none" points="90.393,273.589 100.211,251.223 110.030,258.772 129.666,300.987 139.485,97.738 149.303,104.448 168.940,111.577 178.758,112.206 188.577,109.061 198.395,91.867 208.214,97.459 218.032,92.706 227.851,89.351 237.669,89.910 247.487,94.384 257.306,85.397 267.124,93.964 276.943,96.061 286.761,87.674 296.579,86.416 306.398,83.480 316.216,85.367 326.035,88.513 335.853,89.771 345.671,82.474 355.490,82.586 "/>
<g>
</g>
</g>
<g id="ID000006" clip-path="url(#ID000001)" >
      <polyline fill="none" stroke="#000000" stroke-width="1.0pt" stroke-dasharray="none" points="394.764,87.758 414.400,87.758 "/>
<g>
</g>
</g>
<g id="ID000007" clip-path="url(#ID000001)" >
      <polyline fill="none" stroke="#0000ff" stroke-width="1.0pt" stroke-dasharray="none" points="394.764,271.688 414.400,271.688 "/>
<g>
</g>
</g>
    </g>
    <g>
      <polyline fill="none" stroke="#262626" stroke-width="0.5pt" stroke-dasharray="none" points="60.938,330.063 60.938,326.430 "/>
      <polyline fill="none" stroke="#262626" stroke-width="0.5pt" stroke-dasharray="none" points="159.122,330.063 159.122,326.430 "/>
      <polyline fill="none" stroke="#262626" stroke-width="0.5pt" stroke-dasharray="none" points="257.306,330.063 257.306,326.430 "/>
      <polyline fill="none" stroke="#262626" stroke-width="0.5pt" stroke-dasharray="none" points="355.490,330.063 355.490,326.430 "/>
      <polyline fill="none" stroke="#262626" stroke-width="0.5pt" stroke-dasharray="none" points="404.582,330.063 404.582,326.430 "/>
      <polyline fill="none" stroke="#262626" stroke-width="0.5pt" stroke-dasharray="none" points="60.938,330.063 424.219,330.063 "/>
  <g transform="translate(60.938,348.270)">
    <g transform="rotate(-0.0)">
      <text x="0.000" y="0.000" font-family="Helvetica" text-anchor="middle" font-size="10pt" fill="#262626" >0</text>
    </g>
  </g>
  <g transform="translate(159.122,348.270)">
    <g transform="rotate(-0.0)">
      <text x="0.000" y="0.000" font-family="Helvetica" text-anchor="middle" font-size="10pt" fill="#262626" >10</text>
    </g>
  </g>
  <g transform="translate(257.306,348.270)">
    <g transform="rotate(-0.0)">
      <text x="0.000" y="0.000" font-family="Helvetica" text-anchor="middle" font-size="10pt" fill="#262626" >20</text>
    </g>
  </g>
  <g transform="translate(355.490,348.270)">
    <g transform="rotate(-0.0)">
      <text x="0.000" y="0.000" font-family="Helvetica" text-anchor="middle" font-size="10pt" fill="#262626" >30</text>
    </g>
  </g>
  <g transform="translate(404.582,348.270)">
    <g transform="rotate(-0.0)">
      <text x="0.000" y="0.000" font-family="Helvetica" text-anchor="middle" font-size="10pt" fill="#262626" ><tspan></tspan><tspan font-weight="bold"> </tspan><tspan font-style="italic"> 1326</tspan></text>
    </g>
  </g>
      <polyline fill="none" stroke="#262626" stroke-width="0.5pt" stroke-dasharray="none" points="60.938,330.063 64.570,330.063 "/>
      <polyline fill="none" stroke="#262626" stroke-width="0.5pt" stroke-dasharray="none" points="60.938,229.417 64.570,229.417 "/>
      <polyline fill="none" stroke="#262626" stroke-width="0.5pt" stroke-dasharray="none" points="60.938,128.771 64.570,128.771 "/>
      <polyline fill="none" stroke="#262626" stroke-width="0.5pt" stroke-dasharray="none" points="60.938,28.125 64.570,28.125 "/>
      <polyline fill="none" stroke="#262626" stroke-width="0.5pt" stroke-dasharray="none" points="60.938,330.063 60.938,28.125 "/>
  <g transform="translate(53.672,334.703)">
    <g transform="rotate(-0.0)">
      <text x="0.000" y="0.000" font-family="Helvetica" text-anchor="end" font-size="10pt" fill="#262626" >0.4</text>
    </g>
  </g>
  <g transform="translate(53.672,234.057)">
    <g transform="rotate(-0.0)">
      <text x="0.000" y="0.000" font-family="Helvetica" text-anchor="end" font-size="10pt" fill="#262626" >0.6</text>
    </g>
  </g>
  <g transform="translate(53.672,133.411)">
    <g transform="rotate(-0.0)">
      <text x="0.000" y="0.000" font-family="Helvetica" text-anchor="end" font-size="10pt" fill="#262626" >0.8</text>
    </g>
  </g>
  <g transform="translate(53.672,32.766)">
    <g transform="rotate(-0.0)">
      <text x="0.000" y="0.000" font-family="Helvetica" text-anchor="end" font-size="10pt" fill="#262626" >1</text>
    </g>
  </g>
      <polyline fill="none" stroke="#262626" stroke-width="0.5pt" stroke-dasharray="none" points="60.938,330.063 60.938,330.063 "/>
    </g>
  </g>
  </g>
</svg>
