<?xml version="1.0" encoding="UTF-8" standalone="no"?>
<svg
   xmlns:dc="http://purl.org/dc/elements/1.1/"
   xmlns:cc="http://creativecommons.org/ns#"
   xmlns:rdf="http://www.w3.org/1999/02/22-rdf-syntax-ns#"
   xmlns:svg="http://www.w3.org/2000/svg"
   xmlns="http://www.w3.org/2000/svg"
   xmlns:sodipodi="http://sodipodi.sourceforge.net/DTD/sodipodi-0.dtd"
   xmlns:inkscape="http://www.inkscape.org/namespaces/inkscape"
   style="font-style:normal;font-weight:normal;font-size:12px;font-family:Dialog;color-interpolation:auto;fill:#000000;fill-opacity:1;stroke:#000000;stroke-width:1;stroke-linecap:square;stroke-linejoin:miter;stroke-miterlimit:10;stroke-dasharray:none;stroke-dashoffset:0;stroke-opacity:1;color-rendering:auto;image-rendering:auto;shape-rendering:auto;text-rendering:auto"
   width="152.6"
   height="89.72"
   version="1.1"
   id="svg69"
   sodipodi:docname="Figure2_histogramSeparation.svg"
   inkscape:version="0.92.2 (5c3e80d, 2017-08-06)">
  <metadata
     id="metadata73">
    <rdf:RDF>
      <cc:Work
         rdf:about="">
        <dc:format>image/svg+xml</dc:format>
        <dc:type
           rdf:resource="http://purl.org/dc/dcmitype/StillImage" />
        <dc:title></dc:title>
      </cc:Work>
    </rdf:RDF>
  </metadata>
  <sodipodi:namedview
     pagecolor="#ffffff"
     bordercolor="#666666"
     borderopacity="1"
     objecttolerance="10"
     gridtolerance="10"
     guidetolerance="10"
     inkscape:pageopacity="0"
     inkscape:pageshadow="2"
     inkscape:window-width="1920"
     inkscape:window-height="1137"
     id="namedview71"
     showgrid="false"
     inkscape:zoom="1.748"
     inkscape:cx="117.6"
     inkscape:cy="-76.81"
     inkscape:window-x="-8"
     inkscape:window-y="-8"
     inkscape:window-maximized="1"
     inkscape:current-layer="svg69"
     fit-margin-top="0"
     fit-margin-left="0"
     fit-margin-right="0"
     fit-margin-bottom="0" />
  <!--Generated by the Batik Graphics2D SVG Generator-->
  <defs
     id="genericDefs">
    <defs
       id="defs1">
      <clipPath
         id="clipPath1"
         clipPathUnits="userSpaceOnUse">
        <path
           id="path3"
           d="M 0,0 H 270 V 540 H 0 Z"
           inkscape:connector-curvature="0" />
      </clipPath>
    </defs>
  </defs>
  <path
     d="M 96.89,47.84 V 17.42 h 6.81 v 30.42 z m -9.5,0 v -17.2 h 6.7 v 17.2 z m -9.6,0 V 15.08 h 6.7 v 32.76 z m -9.7,0 V 8.056 h 6.7 V 47.84 Z m -9.6,0 V 8.056 h 6.8 V 47.84 Z m -9.6,0 V 11.96 h 6.7 v 35.88 z m -9.6,0 V 26 h 6.7 v 21.84 z m -9.7,0 v -16.4 h 6.7 v 16.4 z"
     style="color-interpolation:sRGB;fill:#5889b0;stroke:none;stroke-width:0.8545;color-rendering:optimizeSpeed;image-rendering:optimizeSpeed;shape-rendering:crispEdges;text-rendering:optimizeSpeed"
     id="path13"
     inkscape:connector-curvature="0" />
  <path
     d="m 132.6,47.84 v 16.4 h -6.8 v -16.4 z m -9.6,0 v 10.9 h -6.7 v -10.9 z m -9.7,0 v 10.9 h -6.7 v -10.9 z m -9.6,0 v 10.9 h -6.81 v -10.9 z m -9.61,0 v 5.5 h -6.7 v -5.5 z m -9.6,0 v 21.1 h -6.7 v -21.1 z m -9.7,0 v 34.3 h -6.7 v -34.3 z m -9.5,0 v 21.8 h -6.8 v -21.8 z m -9.7,0 v 26.5 h -6.7 v -26.5 z m -9.6,0 v 32 h -6.7 v -32 z m -9.7,0 v 14 h -6.7 v -14 z m -9.5,0 v 22.6 h -6.8 v -22.6 z m -9.7,0 v 7 h -6.7 v -7 z"
     style="color-interpolation:sRGB;fill:#e94849;stroke:none;stroke-width:0.8545;color-rendering:optimizeSpeed;image-rendering:optimizeSpeed;shape-rendering:crispEdges;text-rendering:optimizeSpeed"
     id="path15"
     inkscape:connector-curvature="0" />
  <g
     id="g21"
     style="color-interpolation:linearRGB;stroke-width:0.6667;stroke-linecap:butt;stroke-linejoin:round;color-rendering:optimizeQuality;image-rendering:optimizeQuality;text-rendering:geometricPrecision"
     transform="matrix(-0.7303,0,0,1,178.2,-70.16)">
    <line
       id="line19"
       y1="118"
       x2="244"
       x1="35"
       style="fill:none"
       y2="118" />
  </g>
  <g
     id="g25"
     style="color-interpolation:linearRGB;stroke-width:1.333;stroke-linecap:butt;stroke-linejoin:bevel;stroke-miterlimit:1;stroke-dasharray:2.666, 1.333;stroke-dashoffset:0;color-rendering:optimizeQuality;image-rendering:optimizeQuality;text-rendering:geometricPrecision"
     transform="matrix(-0.7303,0,0,1.1,178.2,-81.66)">
    <line
       id="line23"
       y1="74.24"
       x2="150.9"
       x1="150.9"
       style="fill:none;stroke-width:1.333;stroke-miterlimit:1;stroke-dasharray:2.666, 1.333;stroke-dashoffset:0"
       y2="155.8" />
  </g>
  <g
     id="g29"
     style="font-size:16px;font-family:mwb_cmmi10;color-interpolation:linearRGB;color-rendering:optimizeQuality;image-rendering:optimizeQuality;text-rendering:geometricPrecision"
     transform="translate(158.7,47.84)">
    <path
       inkscape:connector-curvature="0"
       id="path27"
       d="M 1.719,4.027 Q 1.516,4.027 1.375,3.895 1.234,3.762 1.234,3.559 q 0,-0.09 0.02,-0.141 l 1.203,-4.766 q 0.11,-0.453 0.11,-0.781 0,-0.687 -0.469,-0.687 -0.5,0 -0.742,0.593 -0.243,0.594 -0.4614,1.5161 0,0.047 -0.047,0.07 -0.047,0.023 -0.094,0.023 H 0.5625 q -0.047,0 -0.086,-0.055 -0.039,-0.055 -0.039,-0.1015 0.1719,-0.7036 0.3281,-1.1876 0.1563,-0.484 0.5004,-0.883 0.343,-0.398 0.843,-0.398 0.594,0 1.063,0.375 0.469,0.375 0.469,0.969 0.468,-0.625 1.101,-0.985 0.633,-0.359 1.367,-0.359 0.844,0 1.344,0.453 0.5,0.453 0.5,1.281 0,0.469 -0.109,0.8752 L 5.984,6.793 Q 5.937,7.012 5.75,7.152 5.562,7.293 5.328,7.293 5.141,7.293 5,7.176 4.859,7.059 4.859,6.856 q 0,-0.09 0.02,-0.125 l 1.828,-7.3911 q 0.172,-0.6559 0.172,-1.0939 0,-0.437 -0.188,-0.75 -0.187,-0.312 -0.609,-0.312 -1.562,0 -2.609,1.9372 L 2.391,3.481 Q 2.328,3.699 2.141,3.863 1.953,4.027 1.719,4.027 Z"
       style="stroke:none" />
  </g>
  <path
     style="color-interpolation:sRGB;fill:#5889b0;stroke:none;stroke-width:0.8545;color-rendering:optimizeSpeed;image-rendering:optimizeSpeed;shape-rendering:crispEdges;text-rendering:optimizeSpeed"
     d="m 50.59,209.8 v -55.4 h 6.7 v 55.4 z m -9.7,0 v -25 h 6.7 v 25 z m -9.7,0 v -18.3 h 6.8 v 18.3 z m -9.6,0 v -15.2 h 6.8 v 15.2 z m -9.5,0 v -3.1 h 6.7 v 3.1 z"
     id="path31"
     inkscape:connector-curvature="0" />
  <path
     d="m 143.8,209.8 v 2 h -6.7 v -2 z m -9.6,0 v 7.8 h -6.7 v -7.8 z m -9.6,0 v 19.1 h -6.7 v -19.1 z m -9.7,0 v 34.3 h -6.7 v -34.3 z m -9.5,0 v 8.2 h -6.81 v -8.2 z m -9.61,0 v 7.8 h -6.8 v -7.8 z m -9.7,0 v 0.4 h -6.7 v -0.4 z m -9.7,0 v 14 h -6.7 v -14 z m -9.5,0 v 7.4 h -6.7 v -7.4 z m -9.6,0 v 13.3 h -6.7 v -13.3 z m -9.7,0 v 2.7 h -6.7 v -2.7 z"
     style="color-interpolation:sRGB;fill:#e94849;stroke:none;stroke-width:0.8545;color-rendering:optimizeSpeed;image-rendering:optimizeSpeed;shape-rendering:crispEdges;text-rendering:optimizeSpeed"
     id="path33"
     inkscape:connector-curvature="0" />
  <g
     id="g39"
     style="color-interpolation:linearRGB;stroke-width:0.6667;stroke-linecap:butt;stroke-linejoin:round;color-rendering:optimizeQuality;image-rendering:optimizeQuality;text-rendering:geometricPrecision"
     transform="matrix(-0.7303,0,0,1,178.2,-70.16)">
    <line
       id="line37"
       y1="280"
       x2="244"
       x1="35"
       style="fill:none"
       y2="280" />
  </g>
  <g
     id="g43"
     style="color-interpolation:linearRGB;stroke-width:1.333;stroke-linecap:butt;stroke-linejoin:bevel;stroke-miterlimit:1;stroke-dasharray:2.666, 1.333;stroke-dashoffset:0;color-rendering:optimizeQuality;image-rendering:optimizeQuality;text-rendering:geometricPrecision"
     transform="matrix(-0.7303,0,0,1.1,178.2,-97)">
    <line
       id="line41"
       y1="219.1"
       x2="156.1"
       x1="156.1"
       style="fill:none;stroke-width:1.333;stroke-miterlimit:1;stroke-dasharray:2.666, 1.333;stroke-dashoffset:0"
       y2="317.8" />
  </g>
  <g
     id="g47"
     style="font-size:16px;font-family:mwb_cmmi10;color-interpolation:linearRGB;color-rendering:optimizeQuality;image-rendering:optimizeQuality;text-rendering:geometricPrecision"
     transform="translate(158.7,209.8)">
    <path
       inkscape:connector-curvature="0"
       id="path45"
       d="M 1.719,4.027 Q 1.516,4.027 1.375,3.895 1.234,3.762 1.234,3.559 q 0,-0.09 0.02,-0.141 l 1.203,-4.766 q 0.11,-0.453 0.11,-0.781 0,-0.687 -0.469,-0.687 -0.5,0 -0.742,0.593 -0.243,0.594 -0.4614,1.5161 0,0.047 -0.047,0.07 -0.047,0.023 -0.094,0.023 H 0.5625 q -0.047,0 -0.086,-0.055 -0.039,-0.055 -0.039,-0.1015 0.1719,-0.7036 0.3281,-1.1876 0.1563,-0.484 0.5004,-0.883 0.343,-0.398 0.843,-0.398 0.594,0 1.063,0.375 0.469,0.375 0.469,0.969 0.468,-0.625 1.101,-0.985 0.633,-0.359 1.367,-0.359 0.844,0 1.344,0.453 0.5,0.453 0.5,1.281 0,0.469 -0.109,0.8752 L 5.984,6.793 Q 5.937,7.012 5.75,7.152 5.562,7.293 5.328,7.293 5.141,7.293 5,7.176 4.859,7.059 4.859,6.856 q 0,-0.09 0.02,-0.125 l 1.828,-7.3911 q 0.172,-0.6559 0.172,-1.0939 0,-0.437 -0.188,-0.75 -0.187,-0.312 -0.609,-0.312 -1.562,0 -2.609,1.9372 L 2.391,3.481 Q 2.328,3.699 2.141,3.863 1.953,4.027 1.719,4.027 Z"
       style="stroke:none" />
  </g>
  <path
     style="color-interpolation:sRGB;fill:#5889b0;stroke:none;stroke-width:0.8545;color-rendering:optimizeSpeed;image-rendering:optimizeSpeed;shape-rendering:crispEdges;text-rendering:optimizeSpeed"
     d="m 55.89,371.8 v -3.1 h 6.7 v 3.1 z m -9.7,0 v -61.6 h 6.8 v 61.6 z m -9.6,0 v -37 h 6.7 v 37 z m -9.6,0 v -5.9 h 6.8 v 5.9 z m -9.6,0 v -9.4 h 6.7 v 9.4 z"
     id="path49"
     inkscape:connector-curvature="0" />
  <path
     d="m 130,371.8 v 2 h -6.8 v -2 z m -9.7,0 v 9.4 h -6.7 v -9.4 z m -9.6,0 v 10.1 h -6.8 v -10.1 z m -9.6,0 v 10.1 h -6.81 v -10.1 z m -9.61,0 v 12.9 h -6.7 v -12.9 z m -9.7,0 v 10.5 h -6.7 v -10.5 z m -9.6,0 v 17.9 h -6.8 v -17.9 z m -9.6,0 v 14.4 h -6.7 v -14.4 z m -9.6,0 v 26.1 h -6.8 v -26.1 z m -9.7,0 v 3.5 h -6.7 v -3.5 z"
     style="color-interpolation:sRGB;fill:#e94849;stroke:none;stroke-width:0.8545;color-rendering:optimizeSpeed;image-rendering:optimizeSpeed;shape-rendering:crispEdges;text-rendering:optimizeSpeed"
     id="path51"
     inkscape:connector-curvature="0" />
  <g
     id="g57"
     style="color-interpolation:linearRGB;stroke-width:0.6667;stroke-linecap:butt;stroke-linejoin:round;color-rendering:optimizeQuality;image-rendering:optimizeQuality;text-rendering:geometricPrecision"
     transform="matrix(-0.7303,0,0,1,178.2,-70.16)">
    <line
       id="line55"
       y1="442"
       x2="244"
       x1="35"
       style="fill:none"
       y2="442" />
  </g>
  <g
     id="g61"
     style="color-interpolation:linearRGB;stroke-width:1.333;stroke-linecap:butt;stroke-linejoin:bevel;stroke-miterlimit:1;stroke-dasharray:2.666, 1.333;stroke-dashoffset:0;color-rendering:optimizeQuality;image-rendering:optimizeQuality;text-rendering:geometricPrecision"
     transform="matrix(-0.7303,0,0,1.1,178.2,-112.4)">
    <line
       id="line59"
       y1="374.2"
       x2="162.3"
       x1="162.3"
       style="fill:none;stroke-width:1.333;stroke-miterlimit:1;stroke-dasharray:2.666, 1.333;stroke-dashoffset:0"
       y2="470.7" />
  </g>
  <g
     id="g65"
     style="font-size:16px;font-family:mwb_cmmi10;color-interpolation:linearRGB;color-rendering:optimizeQuality;image-rendering:optimizeQuality;text-rendering:geometricPrecision"
     transform="translate(158.7,371.8)">
    <path
       inkscape:connector-curvature="0"
       id="path63"
       d="M 1.719,4.027 Q 1.516,4.027 1.375,3.895 1.234,3.762 1.234,3.559 q 0,-0.09 0.02,-0.141 l 1.203,-4.766 q 0.11,-0.453 0.11,-0.781 0,-0.687 -0.469,-0.687 -0.5,0 -0.742,0.593 -0.243,0.594 -0.4614,1.5161 0,0.047 -0.047,0.07 -0.047,0.023 -0.094,0.023 H 0.5625 q -0.047,0 -0.086,-0.055 -0.039,-0.055 -0.039,-0.1015 0.1719,-0.7036 0.3281,-1.1876 0.1563,-0.484 0.5004,-0.883 0.343,-0.398 0.843,-0.398 0.594,0 1.063,0.375 0.469,0.375 0.469,0.969 0.468,-0.625 1.101,-0.985 0.633,-0.359 1.367,-0.359 0.844,0 1.344,0.453 0.5,0.453 0.5,1.281 0,0.469 -0.109,0.8752 L 5.984,6.793 Q 5.937,7.012 5.75,7.152 5.562,7.293 5.328,7.293 5.141,7.293 5,7.176 4.859,7.059 4.859,6.856 q 0,-0.09 0.02,-0.125 l 1.828,-7.3911 q 0.172,-0.6559 0.172,-1.0939 0,-0.437 -0.188,-0.75 -0.187,-0.312 -0.609,-0.312 -1.562,0 -2.609,1.9372 L 2.391,3.481 Q 2.328,3.699 2.141,3.863 1.953,4.027 1.719,4.027 Z"
       style="stroke:none" />
  </g>
</svg>
