<?xml version="1.0" encoding="utf-8" standalone="no"?><!DOCTYPE svg PUBLIC "-//W3C//DTD SVG 1.1//EN" "http://www.w3.org/Graphics/SVG/1.1/DTD/svg11.dtd">
<svg preserveAspectRatio="xMinYMin meet" width="100%" height="100%" viewBox="0 0 468.750 375.000"  version="1.1" xmlns="http://www.w3.org/2000/svg" xmlns:xlink="http://www.w3.org/1999/xlink">
  <desc>Matlab Figure Converted by PLOT2SVG written by Juerg Schwizer</desc>
  <g id="topgroup">
  <rect x="0" y="0" width="468.750" height="375.000" fill="#ffffff" stroke="none" />
  <g id ="ID000000">
  <clipPath id="ID000001">
    <rect x="60.938" y="28.125" width="363.281" height="301.938"/>
  </clipPath>
      <polygon fill="#ffffff" fill-opacity="1.00" stroke="none" stroke-width="0.5pt" stroke-opacity="1.00" stroke-dasharray="none" points="60.938,330.063 424.219,330.063 424.219,28.125 60.938,28.125 "/>
      <polygon fill="#ffffff" fill-opacity="1.00" stroke="none" stroke-width="0.5pt" stroke-opacity="1.00" stroke-dasharray="none" points="60.938,28.125 424.219,28.125 424.219,28.125 60.938,28.125 "/>
      <polygon fill="#ffffff" fill-opacity="1.00" stroke="none" stroke-width="0.5pt" stroke-opacity="1.00" stroke-dasharray="none" points="60.938,330.063 60.938,330.063 60.938,28.125 60.938,28.125 "/>
      <polyline fill="none" stroke="#262626" stroke-width="0.5pt" stroke-dasharray="none" points="60.938,330.063 60.938,28.125 "/>
      <polyline fill="none" stroke="#262626" stroke-width="0.5pt" stroke-dasharray="none" points="159.122,330.063 159.122,28.125 "/>
      <polyline fill="none" stroke="#262626" stroke-width="0.5pt" stroke-dasharray="none" points="257.306,330.063 257.306,28.125 "/>
      <polyline fill="none" stroke="#262626" stroke-width="0.5pt" stroke-dasharray="none" points="355.490,330.063 355.490,28.125 "/>
      <polyline fill="none" stroke="#262626" stroke-width="0.5pt" stroke-dasharray="none" points="404.582,330.063 404.582,28.125 "/>
      <polyline fill="none" stroke="#262626" stroke-width="0.5pt" stroke-dasharray="none" points="60.938,330.063 424.219,330.063 "/>
      <polyline fill="none" stroke="#262626" stroke-width="0.5pt" stroke-dasharray="none" points="60.938,229.417 424.219,229.417 "/>
      <polyline fill="none" stroke="#262626" stroke-width="0.5pt" stroke-dasharray="none" points="60.938,128.771 424.219,128.771 "/>
      <polyline fill="none" stroke="#262626" stroke-width="0.5pt" stroke-dasharray="none" points="60.938,28.125 424.219,28.125 "/>
      <polyline fill="none" stroke="#262626" stroke-width="0.5pt" stroke-dasharray="none" points="60.938,28.125 60.938,28.125 "/>
      <polyline fill="none" stroke="#262626" stroke-width="0.5pt" stroke-dasharray="none" points="159.122,28.125 159.122,28.125 "/>
      <polyline fill="none" stroke="#262626" stroke-width="0.5pt" stroke-dasharray="none" points="257.306,28.125 257.306,28.125 "/>
      <polyline fill="none" stroke="#262626" stroke-width="0.5pt" stroke-dasharray="none" points="355.490,28.125 355.490,28.125 "/>
      <polyline fill="none" stroke="#262626" stroke-width="0.5pt" stroke-dasharray="none" points="404.582,28.125 404.582,28.125 "/>
      <polyline fill="none" stroke="#262626" stroke-width="0.5pt" stroke-dasharray="none" points="60.938,330.063 60.938,330.063 "/>
      <polyline fill="none" stroke="#262626" stroke-width="0.5pt" stroke-dasharray="none" points="60.938,229.417 60.938,229.417 "/>
      <polyline fill="none" stroke="#262626" stroke-width="0.5pt" stroke-dasharray="none" points="60.938,128.771 60.938,128.771 "/>
      <polyline fill="none" stroke="#262626" stroke-width="0.5pt" stroke-dasharray="none" points="60.938,28.125 60.938,28.125 "/>
    <g>
<g id="ID000002" clip-path="url(#ID000001)" >
      <polyline fill="none" stroke="#7f7f7f" stroke-width="2.0pt" stroke-dasharray="none" points="70.756,279.804 80.574,278.127 90.393,268.965 100.211,262.062 110.030,259.223 119.848,255.933 129.666,257.546 139.485,252.385 149.303,257.352 159.122,243.223 168.940,231.288 178.758,222.384 188.577,222.965 198.395,227.610 208.214,184.191 218.032,173.674 227.851,165.029 237.669,142.835 247.487,128.384 257.306,136.384 267.124,111.674 276.943,121.222 286.761,118.061 296.579,111.351 306.398,98.900 316.216,101.222 326.035,101.029 335.853,99.738 345.671,98.513 355.490,96.448 "/>
<g>
</g>
</g>
<g id="ID000003" clip-path="url(#ID000001)" >
      <polygon fill="#ebebeb" fill-opacity="1.00" stroke="none" stroke-width="0.5pt" stroke-opacity="1.00" stroke-dasharray="none" points="70.756,282.035 80.574,280.767 90.393,283.231 100.211,281.475 110.030,270.706 119.848,275.112 129.666,270.218 139.485,263.968 149.303,268.139 159.122,261.651 168.940,264.626 178.758,264.451 188.577,257.021 198.395,250.484 208.214,231.620 218.032,212.043 227.851,218.990 237.669,174.333 247.487,168.124 257.306,172.039 267.124,133.908 276.943,156.686 286.761,149.752 296.579,134.479 306.398,116.049 316.216,119.207 326.035,120.881 335.853,113.925 345.671,119.998 355.490,113.495 355.490,79.401 345.671,77.027 335.853,85.552 326.035,81.177 316.216,83.238 306.398,81.750 296.579,88.224 286.761,86.370 276.943,85.759 267.124,89.440 257.306,100.729 247.487,88.643 237.669,111.338 227.851,111.068 218.032,135.306 208.214,136.761 198.395,204.736 188.577,188.909 178.758,180.318 168.940,197.949 159.122,224.795 149.303,246.566 139.485,240.801 129.666,244.874 119.848,236.754 110.030,247.741 100.211,242.649 90.393,254.700 80.574,275.486 70.756,277.573 "/>
</g>
<g id="ID000004" clip-path="url(#ID000001)" >
      <polyline fill="none" stroke="#7f7f7f" stroke-width="2.0pt" stroke-dasharray="none" points="70.756,279.804 80.574,278.127 90.393,268.965 100.211,262.062 110.030,259.223 119.848,255.933 129.666,257.546 139.485,252.385 149.303,257.352 159.122,243.223 168.940,231.288 178.758,222.384 188.577,222.965 198.395,227.610 208.214,184.191 218.032,173.674 227.851,165.029 237.669,142.835 247.487,128.384 257.306,136.384 267.124,111.674 276.943,121.222 286.761,118.061 296.579,111.351 306.398,98.900 316.216,101.222 326.035,101.029 335.853,99.738 345.671,98.513 355.490,96.448 "/>
<g>
</g>
</g>
<g id="ID000005" clip-path="url(#ID000001)" >
      <polyline fill="none" stroke="#ff0000" stroke-width="2.0pt" stroke-dasharray="none" points="80.574,276.944 90.393,278.953 100.211,239.094 110.030,236.126 119.848,157.217 129.666,120.384 139.485,119.825 149.303,117.605 159.122,114.593 168.940,118.478 178.758,111.038 188.577,103.654 198.395,102.114 208.214,98.487 218.032,96.956 227.851,91.628 237.669,84.319 247.487,99.751 257.306,101.932 267.124,99.416 276.943,92.706 286.761,94.104 296.579,105.007 355.490,88.997 "/>
<g>
</g>
</g>
<g id="ID000006" clip-path="url(#ID000001)" >
      <polyline fill="none" stroke="#000000" stroke-width="1.0pt" stroke-dasharray="none" points="394.764,91.113 414.400,91.113 "/>
<g>
</g>
</g>
<g id="ID000007" clip-path="url(#ID000001)" >
      <polyline fill="none" stroke="#0000ff" stroke-width="1.0pt" stroke-dasharray="none" points="394.764,272.191 414.400,272.191 "/>
<g>
</g>
</g>
    </g>
    <g>
      <polyline fill="none" stroke="#262626" stroke-width="0.5pt" stroke-dasharray="none" points="60.938,330.063 60.938,326.430 "/>
      <polyline fill="none" stroke="#262626" stroke-width="0.5pt" stroke-dasharray="none" points="159.122,330.063 159.122,326.430 "/>
      <polyline fill="none" stroke="#262626" stroke-width="0.5pt" stroke-dasharray="none" points="257.306,330.063 257.306,326.430 "/>
      <polyline fill="none" stroke="#262626" stroke-width="0.5pt" stroke-dasharray="none" points="355.490,330.063 355.490,326.430 "/>
      <polyline fill="none" stroke="#262626" stroke-width="0.5pt" stroke-dasharray="none" points="404.582,330.063 404.582,326.430 "/>
      <polyline fill="none" stroke="#262626" stroke-width="0.5pt" stroke-dasharray="none" points="60.938,330.063 424.219,330.063 "/>
  <g transform="translate(60.938,348.270)">
    <g transform="rotate(-0.0)">
      <text x="0.000" y="0.000" font-family="Helvetica" text-anchor="middle" font-size="10pt" fill="#262626" >0</text>
    </g>
  </g>
  <g transform="translate(159.122,348.270)">
    <g transform="rotate(-0.0)">
      <text x="0.000" y="0.000" font-family="Helvetica" text-anchor="middle" font-size="10pt" fill="#262626" >10</text>
    </g>
  </g>
  <g transform="translate(257.306,348.270)">
    <g transform="rotate(-0.0)">
      <text x="0.000" y="0.000" font-family="Helvetica" text-anchor="middle" font-size="10pt" fill="#262626" >20</text>
    </g>
  </g>
  <g transform="translate(355.490,348.270)">
    <g transform="rotate(-0.0)">
      <text x="0.000" y="0.000" font-family="Helvetica" text-anchor="middle" font-size="10pt" fill="#262626" >30</text>
    </g>
  </g>
  <g transform="translate(404.582,348.270)">
    <g transform="rotate(-0.0)">
      <text x="0.000" y="0.000" font-family="Helvetica" text-anchor="middle" font-size="10pt" fill="#262626" ><tspan></tspan><tspan font-weight="bold"> </tspan><tspan font-style="italic"> 1326</tspan></text>
    </g>
  </g>
      <polyline fill="none" stroke="#262626" stroke-width="0.5pt" stroke-dasharray="none" points="60.938,330.063 64.570,330.063 "/>
      <polyline fill="none" stroke="#262626" stroke-width="0.5pt" stroke-dasharray="none" points="60.938,229.417 64.570,229.417 "/>
      <polyline fill="none" stroke="#262626" stroke-width="0.5pt" stroke-dasharray="none" points="60.938,128.771 64.570,128.771 "/>
      <polyline fill="none" stroke="#262626" stroke-width="0.5pt" stroke-dasharray="none" points="60.938,28.125 64.570,28.125 "/>
      <polyline fill="none" stroke="#262626" stroke-width="0.5pt" stroke-dasharray="none" points="60.938,330.063 60.938,28.125 "/>
  <g transform="translate(53.672,334.703)">
    <g transform="rotate(-0.0)">
      <text x="0.000" y="0.000" font-family="Helvetica" text-anchor="end" font-size="10pt" fill="#262626" >0.4</text>
    </g>
  </g>
  <g transform="translate(53.672,234.057)">
    <g transform="rotate(-0.0)">
      <text x="0.000" y="0.000" font-family="Helvetica" text-anchor="end" font-size="10pt" fill="#262626" >0.6</text>
    </g>
  </g>
  <g transform="translate(53.672,133.411)">
    <g transform="rotate(-0.0)">
      <text x="0.000" y="0.000" font-family="Helvetica" text-anchor="end" font-size="10pt" fill="#262626" >0.8</text>
    </g>
  </g>
  <g transform="translate(53.672,32.766)">
    <g transform="rotate(-0.0)">
      <text x="0.000" y="0.000" font-family="Helvetica" text-anchor="end" font-size="10pt" fill="#262626" >1</text>
    </g>
  </g>
      <polyline fill="none" stroke="#262626" stroke-width="0.5pt" stroke-dasharray="none" points="60.938,330.063 60.938,330.063 "/>
    </g>
  </g>
  </g>
</svg>
